<?xml version="1.0" encoding="UTF-8"?>
<svg width="548px" height="74px" viewBox="0 0 548 74" version="1.1" xmlns="http://www.w3.org/2000/svg" xmlns:xlink="http://www.w3.org/1999/xlink">
    <!-- Generator: Sketch 54 (76480) - https://sketchapp.com -->
    <title>WZ_White</title>
    <desc>Created with Sketch.</desc>
    <g id="Page-1" stroke="none" stroke-width="1" fill="none" fill-rule="evenodd">
        <g id="Desktop-HD" transform="translate(-170.000000, -474.000000)" fill="#FFFFFE">
            <g id="WZ_White" transform="translate(170.000000, 474.000000)">
                <path d="M538.255232,10.3296522 C539.770119,11.9095037 540.52589,13.9652007 540.52589,16.4934079 C540.52589,19.0227268 539.754513,21.0917653 538.215102,22.6994115 C536.671233,24.3081696 534.738332,25.1097691 532.419741,25.1097691 C530.097807,25.1097691 528.174937,24.3159521 526.658936,22.7272063 C525.146278,21.1373486 524.390507,19.0583041 524.390507,16.4934079 C524.390507,14.000778 525.155196,11.955087 526.690147,10.3574469 C528.222869,8.7564714 530.137936,7.95931902 532.444265,7.95931902 C534.804099,7.95931902 536.740345,8.74980067 538.255232,10.3296522 Z M522.078605,5.00307328 C518.692125,8.0771686 517,11.9150627 517,16.5223144 C517,20.8204889 518.499281,24.4738261 521.496728,27.4834377 C524.490831,30.4908257 528.111399,31.9939638 532.350629,31.9939638 C535.228803,31.9939638 537.862855,31.3113256 540.253901,29.9482729 C542.648292,28.5852201 544.534376,26.6940678 545.923301,24.2714805 C547.305538,21.8511169 548,19.2506435 548,16.4656132 C548,13.7017069 547.312226,11.1301399 545.933333,8.74424173 C544.557785,6.35834351 542.641604,4.47052656 540.190363,3.08079088 C537.732434,1.68994341 535.110644,0.993963783 532.319417,0.993963783 C528.465876,0.993963783 525.052643,2.3314454 522.078605,5.00307328 L522.078605,5.00307328 Z" id="Fill-1"></path>
                <path d="M402.917273,35.5873389 C400.920047,32.6138428 398.062797,31.1259983 394.343333,31.1259983 C390.627156,31.1259983 387.819207,32.5963 385.923869,35.5336142 C384.029627,38.4742176 383.083054,42.293055 383.083054,46.9934156 C383.083054,51.5600127 384.047156,55.3426681 385.976457,58.3512497 C387.902471,61.3598313 390.69289,62.8619293 394.343333,62.8619293 C398.201935,62.8619293 401.090956,61.3949168 403.020256,58.4543134 C404.948462,55.5169992 405.915851,51.6970654 405.915851,46.9934156 C405.915851,42.3621296 404.914499,38.5597386 402.917273,35.5873389 Z M416.244895,57.9521522 C415.072634,61.1569933 413.417226,63.8816016 411.285245,66.1193987 C409.148881,68.3593885 406.636737,70.0665174 403.743333,71.2363995 C400.851026,72.4095709 397.716597,72.9939638 394.343333,72.9939638 C390.97007,72.9939638 387.85317,72.4095709 384.995921,71.2363995 C382.137576,70.0665174 379.673636,68.3593885 377.608485,66.1193987 C375.545524,63.8816016 373.925175,61.1569933 372.7562,57.9521522 C371.582844,54.747311 371,51.113769 371,47.0471402 C371,42.9805115 371.582844,39.3447766 372.7562,36.1388391 C373.925175,32.9339979 375.559767,30.2126789 377.662168,27.9737854 C379.761282,25.7348919 382.238368,24.0102203 385.1,22.8052527 C387.957249,21.5991887 391.071958,20.9939638 394.448508,20.9939638 C397.821772,20.9939638 400.955105,21.5991887 403.847413,22.8052527 C406.73972,24.0102203 409.234336,25.7348919 411.334545,27.9737854 C413.436946,30.2126789 415.072634,32.9339979 416.244895,36.1388391 C417.412774,39.3447766 418,42.9805115 418,47.0471402 C418,51.113769 417.412774,54.747311 416.244895,57.9521522 L416.244895,57.9521522 Z" id="Fill-2"></path>
                <polyline id="Fill-3" points="369.264374 63.658753 371 73.9939638 328 73.9939638 328 64.0892019 353.993095 32.3291746 330.813835 32.3291746 329.078209 21.9939638 369.697443 21.9939638 369.697443 31.8976163 343.593848 63.658753 369.264374 63.658753"></polyline>
                <path d="M452.518442,73.9939638 L452.518442,39.5793194 C452.518442,37.3377184 452.01662,35.5348609 451.011875,34.1696335 C450.006027,32.8055196 448.361598,32.1240195 446.071971,32.1240195 C444.061378,32.1240195 442.102621,32.7030719 440.196804,33.8556089 C438.286575,35.0103731 436.435903,36.5693604 434.632656,38.5292301 L434.632656,73.9939638 L422.308813,73.988396 L422,21.1164556 L432.761029,21.1164556 L433.902534,29.1842149 C436.260542,26.9459545 438.792808,25.0194917 441.496024,23.4092805 C444.200344,21.8001829 447.248769,20.9939638 450.646814,20.9939638 C455.359521,20.9939638 458.931825,22.3436013 461.360419,25.0373087 C463.783497,27.7321296 465,31.4603363 465,36.2185882 L464.993383,73.988396 L452.518442,73.9939638" id="Fill-4"></path>
                <g id="Group-8" transform="translate(119.000000, 19.993964)">
                    <path d="M362.943939,21.4468163 C363.469078,16.1823673 366.850972,8.91881633 374.875094,8.91881633 C383.534911,8.91881633 385.646522,16.7091429 385.543706,21.4468163 L362.943939,21.4468163 Z M397.370939,30.4989796 C397.583206,29.3407347 397.794367,27.4485306 397.794367,25.0251429 C397.794367,13.7611837 392.300861,0.0749387755 375.6125,0.0749387755 C359.138617,0.0749387755 350.4788,13.444898 350.4788,27.6579184 C350.4788,43.3443673 360.300556,53.5558776 376.9856,53.5558776 C384.380661,53.5558776 390.504333,52.1860408 394.944244,50.2916327 L393.042689,41.4488571 C389.027311,42.8175918 384.804089,43.7653469 378.782128,43.7653469 C370.544633,43.7653469 363.256811,39.7649388 362.943939,30.4989796 L397.370939,30.4989796 L397.370939,30.4989796 Z" id="Fill-5"></path>
                    <path d="M22.3830778,28.7026531 C20.06915,29.4652653 18.2560389,30.3116327 16.94485,31.2472653 C15.6303444,32.1817959 14.7149444,33.2066939 14.19865,34.3142449 C13.6801444,35.4217959 13.4203389,36.5635102 13.4203389,37.7415918 C13.4203389,39.5445306 13.9543222,40.9617551 15.0278167,42.0009796 C16.0957833,43.039102 17.6004444,43.5592653 19.5351667,43.5592653 C21.6755222,43.5592653 23.6500444,43.576898 25.70085,42.8429388 C27.7052222,42.1222041 29.48185,41.6174694 31.2087278,39.8872653 L31.2463167,26.9360816 C27.65105,27.350449 24.6970056,27.9400408 22.3830778,28.7026531 Z M43.6042167,53.5713061 L33.1191278,53.5713061 L32.80515,50.3676735 C29.0694778,54.7846531 17.3284778,53.4137143 15.1925444,53.1955102 C10.9063056,52.7624082 7.42822778,51.787102 4.82132778,49.328449 C2.21553333,46.8697959 0.910977778,43.4556735 0.910977778,39.0937959 C0.910977778,32.9984082 3.41285,28.4767347 8.41659444,25.5309796 C13.4203389,22.5896327 21.0298778,20.6324082 31.2463167,19.6615102 L31.2463167,18.2068163 C31.2463167,15.5046122 30.4989611,13.581551 29.0064611,12.4376327 C27.5161722,11.2970204 25.3813444,10.7250612 22.6097167,10.7250612 C19.6932611,10.7250612 16.8475611,11.1074694 14.0737222,11.8678776 C11.2976722,12.6315918 8.557,13.6013878 5.85170556,14.7783673 L4.28734444,4.80159184 C7.2038,3.62681633 10.2595556,2.65591837 13.4535056,1.89220408 C16.6452444,1.13179592 20.2570944,0.749387755 24.2824222,0.749387755 C30.8063056,0.749387755 35.6829111,2.04979592 38.9122389,4.64730612 C42.1415667,7.24481633 43.7534667,11.556 43.7534667,17.5830612 L43.6042167,53.5713061 Z" id="Fill-7"></path>
                </g>
                <path d="M191.537779,73.720618 C190.238486,73.9017373 188.650583,73.9939638 186.775167,73.9939638 C184.178775,73.9939638 181.831488,73.7361742 179.742084,73.2272621 C177.647194,72.7161277 175.844205,71.839421 174.327631,70.5982532 C172.81435,69.3559742 171.640158,67.7125658 170.812736,65.6658057 C169.982022,63.6212679 169.56502,61.0989305 169.56502,58.1043493 C169.56502,58.1043493 169.912888,32.8754196 169.56502,30.708654 C169.273118,28.8841262 168.025401,26.747362 166.681115,25.1128429 C165.039441,23.116085 161,20.1859512 161,20.1859512 L169.56502,20.1859512 L169.592454,0.993963783 L182.360423,0.993963783 L182.338476,20.1859512 L194.679566,20.1859512 L194.675177,30.9264417 L182.338476,30.9264417 L182.338476,55.912027 C182.338476,58.0321238 182.860827,59.6577536 183.907724,60.7900275 C184.953523,61.9223015 186.737856,62.4867717 189.264016,62.4867717 C190.924346,62.4867717 192.294968,62.3412095 193.376981,62.0489739 L195,73.1172571 C193.988219,73.3372671 192.834877,73.5361651 191.537779,73.720618" id="Fill-9"></path>
                <path d="M83.3811949,41.5717095 C83.9039419,36.2562758 87.2622614,28.9223792 95.2363483,28.9223792 C103.83861,28.9223792 105.935089,36.7881529 105.831857,41.5717095 L83.3811949,41.5717095 Z M117.580485,50.7148787 C117.790242,49.5454165 118,47.6315488 118,45.1869166 C118,33.8116436 112.544104,19.9939638 95.968853,19.9939638 C79.6022618,19.9939638 71,33.4922947 71,47.8429644 C71,63.6813324 80.7564783,73.9939638 97.3317289,73.9939638 C104.676543,73.9939638 110.760614,72.613086 115.167722,70.6981056 L113.279903,61.7696901 C109.293408,63.1527934 105.096058,64.1063891 99.1152184,64.1063891 C90.9324719,64.1063891 83.693086,60.0683508 83.3811949,50.7148787 L117.580485,50.7148787 L117.580485,50.7148787 Z" id="Fill-10"></path>
                <path d="M257.379229,41.5717095 C257.905234,36.2562758 261.261121,28.9223792 269.23465,28.9223792 C277.83521,28.9223792 279.934836,36.7881529 279.830514,41.5717095 L257.379229,41.5717095 Z M291.576121,50.7159914 C291.790257,49.5454165 292,47.6315488 292,45.1869166 C292,33.8127563 286.545584,19.9939638 269.970397,19.9939638 C253.603855,19.9939638 245,33.4934074 245,47.8429644 C245,63.6813324 254.755794,73.9939638 271.333178,73.9939638 C278.673084,73.9939638 284.758925,72.613086 289.166822,70.6981056 L287.275841,61.7696901 C283.290724,63.1516807 279.094766,64.1063891 273.11764,64.1063891 C264.933271,64.1063891 257.695491,60.0683508 257.379229,50.7159914 L291.576121,50.7159914 L291.576121,50.7159914 Z" id="Fill-11"></path>
                <path d="M315.65307,36.765309 C312.640659,38.6539529 310.247714,40.9632847 308.46988,43.6910786 L308.46988,73.9939638 L296,73.9939638 L296.149151,20.9939638 L306.619103,20.9939638 L308.159602,32.2523738 C309.803527,29.3153489 311.555233,26.4083731 314.409784,24.7089275 C316.974742,23.1819861 320.177675,22.2148491 324.079547,22.0045051 L326,32.1778074 C322.110103,32.73316 318.664393,34.8766651 315.65307,36.765309" id="Fill-12"></path>
                <g id="Group-16" transform="translate(0.000000, 0.993964)">
                    <path d="M228.744146,72.6383182 L228.843598,38.0363182 C228.843598,35.8098182 228.340813,34.0191061 227.334137,32.6630758 C226.325251,31.3081515 224.676557,30.6312424 222.383635,30.6312424 C220.369178,30.6312424 218.406658,31.2052879 216.498283,32.3511667 C214.586594,33.4981515 212.72905,35.0466364 210.924548,36.993303 L210.925653,72.5697424 L198.494146,72.5697424 L198.550502,0.00553030303 L210.854932,0.00553030303 L210.924548,26.9812424 C213.009726,25.0356818 215.36674,23.3157576 218.007744,21.8203636 C220.647644,20.3238636 223.634521,19.5761667 226.968374,19.5761667 C231.693452,19.5761667 235.268201,20.9167121 237.700356,23.5922727 C240.130301,26.2678333 241.348037,29.9720303 241.348037,34.6982273 L241.359087,72.616197" id="Fill-13"></path>
                    <polyline id="Fill-15" points="56.4976073 72.5376667 46.0827671 72.5310303 36.4480731 37.7786061 26.3028584 72.5310303 15.922274 72.5310303 0 19.8781212 13.4205023 19.8958182 22.3811324 53.6306667 31.3981187 19.7044697 42.5953151 19.7044697 51.6576073 53.6306667 60.7176895 19.7044697 73.1049954 19.7044697"></polyline>
                </g>
            </g>
        </g>
    </g>
</svg>