<?xml version="1.0" encoding="UTF-8"?>
<svg width="830px" height="1793px" viewBox="0 0 830 1793" version="1.1" xmlns="http://www.w3.org/2000/svg" xmlns:xlink="http://www.w3.org/1999/xlink">
    <!-- Generator: Sketch 56.3 (81716) - https://sketch.com -->
    <title>Combined Shape</title>
    <desc>Created with Sketch.</desc>
    <g id="Page-1" stroke="none" stroke-width="1" fill="none" fill-rule="evenodd">
        <path d="M170.049992,0.0072504199 C176.895053,1.00331776 180.948209,2.95774427 182.209462,5.87052996 C184.105942,10.2503345 183.745513,18.454083 184.778534,23.8222482 C185.811556,29.1904133 187.998499,40.6212209 200.86005,51.9547024 C209.434418,59.5103568 220.008072,67 231.743099,67 C231.743099,67 353.2477,67 596.256901,67 C608.34118,67 618.565582,59.5103568 627.13995,51.9547024 C640.001501,40.6212209 642.188444,29.1904133 643.221466,23.8222482 C644.254487,18.454083 643.894058,10.2503345 645.790538,5.87052996 C647.051791,2.95774427 651.104947,1.00331776 657.950008,0.0072504199 L733.235475,0.00725042968 C763.919187,0.979682377 785.894764,8.80644876 801.287139,22.7332055 C815.730482,35.8012933 824.976492,56.9254506 828,88.5376663 L830,210 L828,1527 L828,1703.48409 C824.976492,1735.0963 815.730482,1756.22046 801.287139,1769.28855 C785.894764,1783.2153 763.919187,1791.04207 733.235475,1792.0145 L413.998867,1792.0145 L94.764525,1792.0145 C64.0808134,1791.04207 42.1052359,1783.2153 26.7128606,1769.28855 C12.2695185,1756.22046 3.02350752,1735.0963 0,1703.48409 L0,88.5376663 C3.02350752,56.9254506 12.2695185,35.8012933 26.7128606,22.7332055 C42.1052359,8.80644876 64.0808134,0.979682378 94.764525,0.00725042968 L170.049999,0.00725042968 Z" id="Combined-Shape" fill="#FF0000" fill-rule="nonzero"></path>
    </g>
</svg>