<?xml version="1.0" encoding="UTF-8"?>
<svg width="120px" height="120px" viewBox="0 0 120 120" version="1.1" xmlns="http://www.w3.org/2000/svg" xmlns:xlink="http://www.w3.org/1999/xlink">
    <!-- Generator: Sketch 54 (76480) - https://sketchapp.com -->
    <title>Combined Shape</title>
    <desc>Created with Sketch.</desc>
    <g id="Page-1" stroke="none" stroke-width="1" fill="none" fill-rule="evenodd">
        <g id="Artboard" fill="#FFFFFF">
            <path d="M60,120 C26.862915,120 0,93.137085 0,60 C0,26.862915 26.862915,0 60,0 C93.137085,0 120,26.862915 120,60 C120,93.137085 93.137085,120 60,120 Z M56.5933333,79.2288889 C56.1577778,79.9133333 48.8155556,91.0977778 48.8155556,91.0977778 L62.6911111,79.0422222 C63.5311111,78.3111111 63.4688889,78.1244444 62.8777778,77.0355556 C62.4733333,76.2577778 61.0733333,73.6755556 60.7311111,73.0533333 C60.3888889,72.4311111 60.28,72.3533333 60.7311111,71.7 L69.2711111,57.3888889 L55.1155556,69.5533333 C53.56,70.8755556 53.56,71.1088889 54.4,72.8666667 C54.8044444,73.7533333 56.4533333,77.2688889 56.7644444,77.86 C57.0755556,78.4511111 57.0911111,78.4355556 56.5933333,79.2288889 Z M76.7222222,51.5711111 C78.3751285,50.9709705 80.1298407,50.7014214 81.8866667,50.7777778 C85.9016243,50.9289778 89.0702846,54.2422943 89.0422222,58.26 C89.0422222,62.2119042 85.8385709,65.4155556 81.8866667,65.4155556 L70.64,65.4155556 C69.5042396,65.5114591 68.6312148,66.4613089 68.6312148,67.6011111 C68.6312148,68.7409133 69.5042396,69.6907631 70.64,69.7866667 L81.8866667,69.7866667 C88.3729442,69.7866667 93.6311111,64.5284998 93.6311111,58.0422222 C93.6311111,58.0422222 93.6311111,46.2977778 81.3422222,46.2977778 C79.8907563,38.951671 72.8116153,34.1306512 65.4444444,35.4711111 C61.7509133,32.019041 56.8888898,30.0909014 51.8333333,30.0733333 C41.4847453,30.10016 32.8961611,38.0791443 32.1088889,48.3977778 C27.6234096,50.9797921 25.4318106,56.2529401 26.7658103,61.2536168 C28.0998101,66.2542935 32.626674,69.7351985 37.8022222,69.74 L48.6911111,69.74 C49.8785347,69.6180445 50.7504213,68.5689085 50.6530444,67.379217 C50.5556676,66.1895255 49.5247839,65.2961322 48.3333333,65.3688889 L38.7822222,65.3688889 C36.8462218,65.4536981 34.9595077,64.744486 33.5587485,63.4053954 C32.1579893,62.0663048 31.3646059,60.2134112 31.3622222,58.2755556 C31.3448122,54.9823775 33.5178069,52.0786975 36.6822222,51.1666667 C37.0711111,35.7355556 50.6822222,34.9422222 52.1288889,34.9422222 C56.6395492,35.0393015 60.9038629,37.0191614 63.8888889,40.4022222 C67.1927401,39.4396019 70.7593604,40.2234146 73.3551837,42.4825675 C75.951007,44.7417204 77.2196077,48.1660152 76.7222222,51.5711111 Z" id="Combined-Shape"></path>
        </g>
    </g>
</svg>