<?xml version="1.0" encoding="UTF-8"?>
<svg width="76px" height="76px" viewBox="0 0 76 76" version="1.1" xmlns="http://www.w3.org/2000/svg" xmlns:xlink="http://www.w3.org/1999/xlink">
    <!-- Generator: Sketch 55.2 (78181) - https://sketchapp.com -->
    <title>Group 21</title>
    <desc>Created with Sketch.</desc>
    <g id="Page-1" stroke="none" stroke-width="1" fill="none" fill-rule="evenodd">
        <g id="Desktop-HD-Copy-3" transform="translate(-769.000000, -1744.000000)" fill="#3296C4">
            <g id="Group-20" transform="translate(-49.000000, 1407.000000)">
                <g id="Group-21" transform="translate(818.000000, 337.000000)">
                    <path d="M38,51 C30.8202983,51 25,45.1797017 25,38 C25,30.8202983 30.8202983,25 38,25 C45.1797017,25 51,30.8202983 51,38 C51,45.1797017 45.1797017,51 38,51 Z M38,45 C41.8659932,45 45,41.8659932 45,38 C45,34.1340068 41.8659932,31 38,31 C34.1340068,31 31,34.1340068 31,38 C31,41.8659932 34.1340068,45 38,45 Z" id="Combined-Shape"></path>
                    <path d="M38,64 C23.6405965,64 12,52.3594035 12,38 C12,23.6405965 23.6405965,12 38,12 C52.3594035,12 64,23.6405965 64,38 C64,52.3594035 52.3594035,64 38,64 Z M38,59 C49.5979797,59 59,49.5979797 59,38 C59,26.4020203 49.5979797,17 38,17 C26.4020203,17 17,26.4020203 17,38 C17,49.5979797 26.4020203,59 38,59 Z" id="Combined-Shape" opacity="0.350353423"></path>
                    <path d="M38,76 C17.0131795,76 0,58.9868205 0,38 C0,17.0131795 17.0131795,0 38,0 C58.9868205,0 76,17.0131795 76,38 C76,58.9868205 58.9868205,76 38,76 Z M38.5,72 C57.0015391,72 72,57.0015391 72,38.5 C72,19.9984609 57.0015391,5 38.5,5 C19.9984609,5 5,19.9984609 5,38.5 C5,57.0015391 19.9984609,72 38.5,72 Z" id="Combined-Shape" opacity="0.0933314732"></path>
                </g>
            </g>
        </g>
    </g>
</svg>