<?xml version="1.0" encoding="UTF-8"?>
<svg width="120px" height="120px" viewBox="0 0 120 120" version="1.1" xmlns="http://www.w3.org/2000/svg" xmlns:xlink="http://www.w3.org/1999/xlink">
    <!-- Generator: Sketch 54 (76480) - https://sketchapp.com -->
    <title>Artboard</title>
    <desc>Created with Sketch.</desc>
    <g id="Artboard" stroke="none" stroke-width="1" fill="none" fill-rule="evenodd">
        <path d="M60,120 C26.862915,120 0,93.137085 0,60 C0,26.862915 26.862915,0 60,0 C93.137085,0 120,26.862915 120,60 C120,93.137085 93.137085,120 60,120 Z M63.78,72.5422222 L62.3333333,71.6866667 L63.8111111,70.8311111 C64.3179858,70.5390138 64.4920973,69.8913191 64.2,69.3844444 C63.9079027,68.8775698 63.260208,68.7034583 62.7533333,68.9955556 L61.2755556,69.8511111 L61.2755556,68.1555556 C61.2755556,67.571361 60.8019723,67.0977778 60.2177778,67.0977778 C59.6335832,67.0977778 59.16,67.571361 59.16,68.1555556 L59.16,69.8511111 L57.6666667,68.9955556 C57.159792,68.7034583 56.5120973,68.8775698 56.22,69.3844444 C55.9279027,69.8913191 56.1020142,70.5390138 56.6088889,70.8311111 L58.0866667,71.6866667 L56.6088889,72.5422222 C56.1020142,72.8343195 55.9279027,73.4820142 56.22,73.9888889 C56.5120973,74.4957636 57.159792,74.669875 57.6666667,74.3777778 L59.1444444,73.5222222 L59.1444444,75.2177778 C59.1444444,75.8019723 59.6180277,76.2755556 60.2022222,76.2755556 C60.7864168,76.2755556 61.26,75.8019723 61.26,75.2177778 L61.26,73.5222222 L62.7377778,74.3777778 C63.0656682,74.5667316 63.4694571,74.5664046 63.7970411,74.3769201 C64.1246251,74.1874356 64.3262364,73.8375807 64.32593,73.4591423 C64.3256236,73.080704 64.123446,72.731176 63.7955556,72.5422222 L63.78,72.5422222 Z M75.3222222,72.5422222 L73.8444444,71.6866667 L75.3222222,70.8311111 C75.8290968,70.5390138 76.0032083,69.8913191 75.711111,69.3844445 C75.4190138,68.8775698 74.7713191,68.7034583 74.2644444,68.9955556 L72.7866667,69.8511111 L72.7866667,68.1555556 C72.7866667,67.5670655 72.3096012,67.09 71.7211111,67.09 C71.132621,67.09 70.6555556,67.5670655 70.6555556,68.1555556 L70.6555556,69.8511111 L69.1777778,68.9955556 C68.6709031,68.7034583 68.0232084,68.8775698 67.7311112,69.3844445 C67.4390139,69.8913191 67.6131254,70.5390138 68.12,70.8311111 L69.5977778,71.6866667 L68.12,72.5422222 C67.6131253,72.8343195 67.4390138,73.4820142 67.7311111,73.9888889 C68.0232084,74.4957636 68.6709031,74.669875 69.1777778,74.3777778 L70.6555556,73.5222222 L70.6555556,75.2177778 C70.6555556,75.8062679 71.132621,76.2833333 71.7211111,76.2833333 C72.3096012,76.2833333 72.7866667,75.8062679 72.7866667,75.2177778 L72.7866667,73.5222222 L74.2644444,74.3777778 C74.7713191,74.669875 75.4190138,74.4957636 75.7111111,73.9888889 C76.0032084,73.4820142 75.8290969,72.8343195 75.3222222,72.5422222 Z M52.2377778,72.5422222 L50.76,71.6866667 L52.2377778,70.8311111 C52.7446524,70.5390138 52.9187638,69.8913191 52.6266666,69.3844445 C52.3345693,68.8775698 51.6868747,68.7034583 51.18,68.9955556 L49.7022222,69.8511111 L49.7022222,68.1555556 C49.7022222,67.571361 49.228639,67.0977778 48.6444444,67.0977778 C48.0602499,67.0977778 47.5866667,67.571361 47.5866667,68.1555556 L47.5866667,69.8511111 L46.1088889,68.9955556 C45.6020142,68.7034583 44.9543195,68.8775698 44.6622223,69.3844445 C44.370125,69.8913191 44.5442365,70.5390138 45.0511111,70.8311111 L46.5288889,71.6866667 L45.0511111,72.5422222 C44.5442364,72.8343195 44.370125,73.4820142 44.6622222,73.9888889 C44.9543195,74.4957636 45.6020142,74.669875 46.1088889,74.3777778 L47.5866667,73.5222222 L47.5866667,75.2177778 C47.5866667,75.8019723 48.0602499,76.2755556 48.6444444,76.2755556 C49.228639,76.2755556 49.7022222,75.8019723 49.7022222,75.2177778 L49.7022222,73.5222222 L51.18,74.3777778 C51.6868747,74.669875 52.3345694,74.4957636 52.6266667,73.9888889 C52.9187639,73.4820142 52.7446524,72.8343195 52.2377778,72.5422222 Z M57.8066667,82.9022222 L56.3288889,82.0466667 L57.8066667,81.1911111 C58.3135413,80.8990138 58.4876527,80.2513191 58.1955555,79.7444445 C57.9034582,79.2375699 57.2557636,79.0634584 56.7488889,79.3555556 L55.2711111,80.2111111 L55.2711111,78.5155556 C55.2711111,77.9270655 54.7940456,77.45 54.2055556,77.45 C53.6170655,77.45 53.14,77.9270655 53.14,78.5155556 L53.14,80.2111111 L51.6622222,79.3555556 C51.3287743,79.1666017 50.9198501,79.1698935 50.5894874,79.364191 C50.2591246,79.5584884 50.0575133,79.9142731 50.0605985,80.2975243 C50.0636836,80.6807756 50.2709965,81.0332684 50.6044444,81.2222222 L52.0822222,82.0777778 L50.6044444,82.9333333 C50.276554,83.1222871 50.0743764,83.4718151 50.07407,83.8502534 C50.0737636,84.2286918 50.2753749,84.5785467 50.6029589,84.7680312 C50.9305429,84.9575157 51.3343318,84.9578427 51.6622222,84.7688889 L53.14,83.9133333 L53.14,85.6088889 C53.14,86.197379 53.6170655,86.6744444 54.2055556,86.6744444 C54.7940456,86.6744444 55.2711111,86.197379 55.2711111,85.6088889 L55.2711111,83.8977778 L56.7488889,84.7533333 C57.2557636,85.0454306 57.9034583,84.8713191 58.1955556,84.3644444 C58.4876528,83.8575698 58.3135413,83.209875 57.8066667,82.9177778 L57.8066667,82.9022222 Z M68.8355556,82.9022222 L67.3577778,82.0466667 L68.8355556,81.1911111 C69.163446,81.0021573 69.3656237,80.6526294 69.3659301,80.274191 C69.3662365,79.8957526 69.1646252,79.5458977 68.8370412,79.3564132 C68.5094571,79.1669286 68.1056682,79.1666017 67.7777778,79.3555556 L66.3,80.2111111 L66.3,78.5155556 C66.3,77.9270655 65.8229345,77.45 65.2344444,77.45 C64.6459544,77.45 64.1688889,77.9270655 64.1688889,78.5155556 L64.1688889,80.2111111 L62.6911111,79.3555556 C62.1756453,79.0677538 61.5244684,79.252312 61.2366667,79.7677778 C60.9488649,80.2832435 61.1334231,80.9344205 61.6488889,81.2222222 L63.1266667,82.0777778 L61.6488889,82.9333333 C61.1420142,83.2254306 60.9679027,83.8731253 61.26,84.38 C61.5520973,84.8868747 62.199792,85.0609862 62.7066667,84.7688889 L64.1844444,83.9133333 L64.1844444,85.6088889 C64.1844444,86.197379 64.6615099,86.6744444 65.25,86.6744444 C65.8384901,86.6744444 66.3155556,86.197379 66.3155556,85.6088889 L66.3155556,83.8977778 L67.7933333,84.7533333 C68.300208,85.0454306 68.9479027,84.8713191 69.24,84.3644444 C69.5320973,83.8575698 69.3579858,83.209875 68.8511111,82.9177778 L68.8355556,82.9022222 Z M76.7222222,55.7266667 C78.3719465,55.1106473 80.1267533,54.8252269 81.8866667,54.8866667 C85.9016243,55.0378667 89.0702846,58.3511832 89.0422222,62.3688889 C89.0422222,64.2666602 88.2883355,66.0867038 86.9464085,67.4286307 C85.6044815,68.7705577 83.784438,69.5244444 81.8866667,69.5244444 L81.56,69.5244444 C80.7351566,69.4547947 79.9413622,69.8554608 79.5075087,70.5604351 C79.0736551,71.2654095 79.0736551,72.1545905 79.5075087,72.8595649 C79.9413622,73.5645392 80.7351566,73.9652053 81.56,73.8955556 L81.8866667,73.8955556 C85.0041813,73.8996847 87.9954245,72.6641503 90.2013006,70.461192 C92.4071767,68.2582337 93.6466694,65.2686285 93.6466667,62.1511111 C93.6466667,62.1511111 93.6466667,50.4066667 81.3577778,50.4066667 C79.8921777,43.0673072 72.803901,38.2655713 65.4444444,39.6266667 C61.7500751,36.1759203 56.888593,34.2479954 51.8333333,34.2288889 C41.4847453,34.2557155 32.8961611,42.2346999 32.1088889,52.5533333 C27.6234096,55.1353477 25.4318106,60.4084957 26.7658103,65.4091724 C28.0998101,70.4098491 32.626674,73.8907541 37.8022222,73.8955556 L39.3577778,73.8955556 C40.5108811,73.7575015 41.3565065,72.7445427 41.2863759,71.585324 C41.2162452,70.4261054 40.2546697,69.522479 39.0933333,69.5244444 L38.7511111,69.5244444 C36.8151107,69.6092537 34.9283966,68.9000415 33.5276374,67.5609509 C32.1268782,66.2218604 31.3334948,64.3689667 31.3311111,62.4311111 C31.3137011,59.1379331 33.4866958,56.2342531 36.6511111,55.3222222 C37.04,39.8911111 50.6511111,39.0977778 52.0977778,39.0977778 C56.6193449,39.1862133 60.8965834,41.1668342 63.8888889,44.5577778 C67.1927401,43.5951575 70.7593604,44.3789701 73.3551837,46.638123 C75.951007,48.8972759 77.2196077,52.3215707 76.7222222,55.7266667 Z" id="Combined-Shape" fill="#FFFFFF"></path>
        <g id="clear_1" transform="translate(27.000000, 25.000000)"></g>
        <g id="snow" transform="translate(26.000000, 34.000000)"></g>
        <g id="thunderstorm" transform="translate(26.000000, 30.000000)"></g>
    </g>
</svg>