<?xml version="1.0" encoding="UTF-8"?>
<svg width="149px" height="20px" viewBox="0 0 149 20" version="1.1" xmlns="http://www.w3.org/2000/svg" xmlns:xlink="http://www.w3.org/1999/xlink">
    <!-- Generator: Sketch 54 (76480) - https://sketchapp.com -->
    <title>WZ_White</title>
    <desc>Created with Sketch.</desc>
    <g id="Page-1" stroke="none" stroke-width="1" fill="none" fill-rule="evenodd">
        <g id="Desktop-HD" transform="translate(-170.000000, -33.000000)">
            <g id="Group-2">
                <g id="WZ_White" transform="translate(170.000000, 33.000000)">
                    <path d="M145.474387,2.79179789 C145.064958,2.36481099 144.541648,2.1511673 143.903855,2.1511673 C143.280523,2.1511673 142.762938,2.36661389 142.348688,2.79930998 C141.933837,3.23110461 141.727164,3.78399405 141.727164,4.45767781 C141.727164,5.15089299 141.931427,5.71279693 142.340253,6.14248818 C142.749983,6.57187894 143.269677,6.78642408 143.897227,6.78642408 C144.523873,6.78642408 145.046279,6.56977556 145.463541,6.13497609 C145.879598,5.70047711 146.088078,5.14127752 146.088078,4.45767781 C146.088078,3.77437858 145.883816,3.21878479 145.474387,2.79179789 Z M141.102326,1.35218197 C141.90612,0.630120379 142.828615,0.26863886 143.870113,0.26863886 C144.624498,0.26863886 145.33309,0.456741463 145.997395,0.832646184 C146.659893,1.20825042 147.17778,1.71847122 147.54955,2.36330858 C147.922223,3.00814593 148.108108,3.70316401 148.108108,4.45016572 C148.108108,5.20287662 147.920416,5.90570727 147.546838,6.55985961 C147.171453,7.21461292 146.661701,7.72573516 146.014568,8.0941278 C145.368339,8.46252044 144.656433,8.64701724 143.878548,8.64701724 C142.73281,8.64701724 141.754279,8.24076369 140.945062,7.42795612 C140.134941,6.61454758 139.72973,5.62715916 139.72973,4.46549038 C139.72973,3.22028721 140.187061,2.18301854 141.102326,1.35218197 Z M108.89656,9.61819969 C108.356769,8.8145521 107.58454,8.41243197 106.579279,8.41243197 C105.574907,8.41243197 104.816002,8.80981081 104.303749,9.60367951 C103.791791,10.3984372 103.53596,11.4305554 103.53596,12.7009231 C103.53596,13.9351386 103.796529,14.9574779 104.317961,15.770608 C104.838506,16.5837382 105.592673,16.9897106 106.579279,16.9897106 C107.622145,16.9897106 108.402961,16.5932208 108.924394,15.7984631 C109.44553,15.0045944 109.706987,13.9721798 109.706987,12.7009231 C109.706987,11.4492242 109.436351,10.421551 108.89656,9.61819969 Z M112.49862,15.6627438 C112.181793,16.5289171 111.734385,17.2652977 111.158174,17.8701077 C110.580779,18.4755104 109.901821,18.9368966 109.11982,19.253081 C108.338115,19.5701543 107.490972,19.7280983 106.579279,19.7280983 C105.667586,19.7280983 104.825181,19.5701543 104.052952,19.253081 C103.280426,18.9368966 102.614496,18.4755104 102.056347,17.8701077 C101.49879,17.2652977 101.060858,16.5289171 100.744919,15.6627438 C100.427796,14.7965705 100.27027,13.8145322 100.27027,12.7154433 C100.27027,11.6163545 100.427796,10.6337234 100.744919,9.7672538 C101.060858,8.90108052 101.50264,8.16558888 102.070856,7.56048254 C102.638184,6.9553762 103.307667,6.48924874 104.081081,6.16358181 C104.853311,5.83761856 105.695124,5.67404427 106.607705,5.67404427 C107.519398,5.67404427 108.366245,5.83761856 109.147949,6.16358181 C109.929654,6.48924874 110.603875,6.9553762 111.171499,7.56048254 C111.739715,8.16558888 112.181793,8.90108052 112.49862,9.7672538 C112.814263,10.6337234 112.972973,11.6163545 112.972973,12.7154433 C112.972973,13.8145322 112.814263,14.7965705 112.49862,15.6627438 Z M99.8011821,17.2050684 L100.27027,19.9983686 L88.6486486,19.9983686 L88.6486486,17.3214059 L95.6738096,8.73761475 L89.4091446,8.73761475 L88.9400565,5.94431454 L99.9182279,5.94431454 L99.9182279,8.62097737 L92.8632022,17.2050684 L99.8011821,17.2050684 Z M122.302282,19.9983686 L122.302282,10.6971133 C122.302282,10.0912752 122.166654,9.60401647 121.895101,9.23503608 C121.623251,8.86635665 121.17881,8.68216742 120.559992,8.68216742 C120.016589,8.68216742 119.487195,8.83866808 118.972109,9.15016457 C118.455831,9.46226299 117.95565,9.88361091 117.468285,10.4133054 L117.468285,19.9983686 L114.137517,19.9968638 L114.054054,5.70715017 L116.96244,5.70715017 L117.270955,7.88762564 C117.908255,7.28269042 118.592651,6.76202478 119.32325,6.32683257 C120.054147,5.89194133 120.878046,5.67404427 121.796436,5.67404427 C123.070141,5.67404427 124.035628,6.03881118 124.692005,6.76684018 C125.346891,7.49517015 125.675676,8.50279359 125.675676,9.78880763 L125.673887,19.9968638 L122.302282,19.9983686 Z M130.255119,11.2002108 L136.363164,11.2002108 C136.390952,9.91975855 135.820246,7.81426489 133.479755,7.81426489 C131.311074,7.81426489 130.397048,9.77738679 130.255119,11.2002108 Z M139.559713,13.6467415 L130.255119,13.6467415 C130.339679,16.1510547 132.30936,17.2322461 134.53571,17.2322461 C136.163267,17.2322461 137.304679,16.9760961 138.389916,16.6061678 L138.90385,18.9961071 C137.703874,19.5081094 136.048827,19.8783355 134.050162,19.8783355 C129.540691,19.8783355 126.886162,17.1184679 126.886162,12.8788871 C126.886162,9.0375302 129.226653,5.42402772 133.679054,5.42402772 C138.189422,5.42402772 139.674153,9.12301283 139.674153,12.1673261 C139.674153,12.8222958 139.617083,13.3337023 139.559713,13.6467415 Z M38.2116426,13.1612478 C37.5862568,13.3673592 37.0962267,13.5961071 36.7418514,13.8489808 C36.3865796,14.1015567 36.1391742,14.3785561 35.9996351,14.6778942 C35.8594985,14.9772324 35.7892808,15.2858038 35.7892808,15.6042042 C35.7892808,16.091485 35.9336006,16.4745186 36.2237342,16.7553901 C36.5123739,17.0359637 36.919039,17.1765484 37.4419369,17.1765484 C38.0204114,17.1765484 38.5540661,17.181314 39.1083378,16.9829466 C39.6500601,16.7881535 40.1302297,16.6517387 40.5969535,16.184116 L40.6071126,12.6837961 C39.6354189,12.7957872 38.8370285,12.9551364 38.2116426,13.1612478 Z M43.9470856,19.8825054 L41.1132778,19.8825054 L41.0284189,19.0166587 C40.0187778,20.210437 36.8455345,19.839913 36.2682553,19.7809389 C35.1098123,19.6638843 34.1697913,19.4002881 33.4652237,18.7357872 C32.760955,18.0712864 32.4083724,17.1485506 32.4083724,15.9696648 C32.4083724,14.3222627 33.0845541,13.1001888 34.4369174,12.3040387 C35.7892808,11.5090801 37.8459129,10.9801005 40.6071126,10.7176957 L40.6071126,10.3245352 C40.6071126,9.59420974 40.4051246,9.07446346 40.0017462,8.76529633 C39.5989655,8.45702275 39.021985,8.30243919 38.2728964,8.30243919 C37.4846652,8.30243919 36.7155571,8.40579275 35.9658709,8.61130847 C35.2155871,8.81771773 34.4748649,9.07982474 33.7437042,9.39792733 L33.3209039,6.70150152 C34.1091351,6.38399462 34.935015,6.12158977 35.7982447,5.9151805 C36.6608769,5.70966478 37.6370526,5.60631123 38.724979,5.60631123 C40.4881907,5.60631123 41.8061922,5.95777289 42.6789835,6.65980268 C43.5517748,7.36183246 43.9874234,8.52701724 43.9874234,10.1559527 L43.9470856,19.8825054 Z M51.7669672,19.9244913 C51.4158069,19.9734425 50.9866439,19.9983686 50.4797749,19.9983686 C49.7780474,19.9983686 49.1436455,19.9286957 48.5789417,19.7911519 C48.012755,19.6530075 47.5254608,19.4160597 47.115576,19.080609 C46.706581,18.7448579 46.3892318,18.3006935 46.1656043,17.7475151 C45.9410871,17.1949373 45.8283837,16.5132245 45.8283837,15.7038782 C45.8283837,15.7038782 45.9224021,8.88524853 45.8283837,8.2996362 C45.7494912,7.80652059 45.4122705,7.22901675 45.0489501,6.78725483 C44.6052543,6.24759055 43.5135135,5.4556625 43.5135135,5.4556625 L45.8283837,5.4556625 L45.8357984,0.26863886 L49.2866009,0.26863886 L49.2806692,5.4556625 L52.616099,5.4556625 L52.6149126,8.35849775 L49.2806692,8.35849775 L49.2806692,15.1113587 C49.2806692,15.6843578 49.4218451,16.1237172 49.7047902,16.4297372 C49.9874386,16.7357571 50.4696909,16.8883167 51.1524367,16.8883167 C51.6011745,16.8883167 51.971613,16.8489755 52.2640489,16.7699929 L52.7027027,19.7614208 C52.4292485,19.820883 52.1175344,19.8746392 51.7669672,19.9244913 Z M22.5354581,11.2355972 L28.6032047,11.2355972 C28.6311051,9.94274404 28.0644892,7.81685924 25.7395536,7.81685924 C23.584395,7.81685924 22.676741,9.79899345 22.5354581,11.2355972 Z M31.7785094,13.706724 L22.5354581,13.706724 C22.619753,16.2346894 24.5763438,17.3260511 26.7878969,17.3260511 C28.40434,17.3260511 29.538759,17.0683225 30.6161899,16.6945108 L31.1264114,19.1075961 C29.9353011,19.6251584 28.2909575,19.9983686 26.3058727,19.9983686 C21.8260752,19.9983686 19.1891892,17.2111709 19.1891892,12.9305309 C19.1891892,9.05197154 21.5141248,5.403774 25.9375278,5.403774 C30.4173253,5.403774 31.8918919,9.13828205 31.8918919,12.2126802 C31.8918919,12.8733916 31.8352006,13.3906531 31.7785094,13.706724 Z M69.5619538,11.2355972 L75.6298687,11.2355972 C75.6580639,9.94274404 75.0905974,7.81685924 72.7661215,7.81685924 C70.6111139,7.81685924 69.7041172,9.79899345 69.5619538,11.2355972 Z M78.8043572,13.7070247 L69.5619538,13.7070247 C69.6474299,16.2346894 71.6035868,17.3260511 73.8155784,17.3260511 C75.4310179,17.3260511 76.5650606,17.0680218 77.6421192,16.6945108 L78.1531953,19.1075961 C76.9618717,19.6251584 75.3170498,19.9983686 73.3332912,19.9983686 C68.8529174,19.9983686 66.2162162,17.2111709 66.2162162,12.9305309 C66.2162162,9.05227228 68.5415825,5.403774 72.9649722,5.403774 C77.4447525,5.403774 78.9189189,9.13858278 78.9189189,12.2126802 C78.9189189,12.8733916 78.8622316,13.3906531 78.8043572,13.7070247 Z M85.3116406,9.93656999 C84.4974754,10.4470143 83.8507334,11.071158 83.3702377,11.8083996 L83.3702377,19.9983686 L80,19.9983686 L80.040311,5.67404427 L82.8700278,5.67404427 L83.286379,8.71685777 C83.7306831,7.92306726 84.204117,7.13739813 84.9756172,6.6780885 C85.6688493,6.26540166 86.5345066,6.00401327 87.5890668,5.94716355 L88.1081081,8.6967047 C87.0567846,8.84679999 86.1255115,9.42612569 85.3116406,9.93656999 Z M61.8227422,19.9006167 L61.8496211,10.5487249 C61.8496211,9.9469681 61.7137332,9.46299185 61.4416586,9.09649717 C61.1689868,8.73030143 60.7233938,8.54735303 60.1036851,8.54735303 C59.5592373,8.54735303 59.0288264,8.70250045 58.5130495,9.01219742 C57.9963767,9.32219332 57.4943379,9.74070274 57.0066346,10.2668289 L57.0069332,19.8820828 L53.6470665,19.8820828 L53.6622979,0.270133537 L56.9878193,0.270133537 L57.0066346,7.56086654 C57.5701962,7.03503935 58.207227,6.57019496 58.921012,6.16603444 C59.6344983,5.76157498 60.4417623,5.55949472 61.3428039,5.55949472 C62.6198519,5.55949472 63.5860002,5.9218043 64.2433395,6.64492879 C64.9000815,7.36805327 65.2291991,8.36918759 65.2291991,9.64653812 L65.2321856,19.894638 L61.8227422,19.9006167 Z M15.2696236,19.8734136 L12.4548019,19.87162 L9.85083056,10.4790729 L7.10888066,19.87162 L4.30331729,19.87162 L0,5.64110405 L3.62716278,5.64588702 L6.04895471,14.7634136 L8.48597803,5.59417121 L11.5122473,5.59417121 L13.9615155,14.7634136 L16.4101864,5.59417121 L19.7581069,5.59417121 L15.2696236,19.8734136 Z" id="Combined-Shape" fill="#58A8D7"></path>
                    <g id="Group-8" transform="translate(32.162162, 5.403774)"></g>
                    <g id="Group-16" transform="translate(0.000000, 0.268639)"></g>
                </g>
            </g>
        </g>
    </g>
</svg>