<?xml version="1.0" encoding="UTF-8"?>
<svg width="120px" height="120px" viewBox="0 0 120 120" version="1.1" xmlns="http://www.w3.org/2000/svg" xmlns:xlink="http://www.w3.org/1999/xlink">
    <!-- Generator: Sketch 54 (76480) - https://sketchapp.com -->
    <title>Artboard</title>
    <desc>Created with Sketch.</desc>
    <g id="Artboard" stroke="none" stroke-width="1" fill="none" fill-rule="evenodd">
        <path d="M60,120 C26.862915,120 0,93.137085 0,60 C0,26.862915 26.862915,0 60,0 C93.137085,0 120,26.862915 120,60 C120,93.137085 93.137085,120 60,120 Z M27.7,55.9689655 C26.1570306,71.1533528 34.6725351,85.5754779 48.7136255,91.5582996 C62.7547158,97.5411213 79.0551041,93.6928946 88.937931,82.062069 C95.6482759,74.337931 88.1413793,74.3862069 85.3896552,74.0965517 C57.0517241,70.3793103 52.4172414,42.1862069 56.8344828,30.7689655 C58.2344828,25.2896552 55.337931,25.2655172 53.0206897,25.9413793 C53.0448276,25.9172414 29.8482759,32.2413793 27.7,55.9689655 Z M59.6586207,86.1413793 C52.5936875,85.4225358 46.103903,81.9258934 41.6176309,76.4210429 C37.1313587,70.9161924 35.0162872,63.8543029 35.737931,56.7896552 C36.5866188,48.6893727 41.013862,41.3932759 47.8068966,36.9 C44.5965517,55.7758621 58.9344828,77.9344828 79.4517241,80.0103448 C73.8155524,84.4039933 66.767091,86.5846379 59.6344828,86.1413793 L59.6586207,86.1413793 Z" id="Combined-Shape" fill="#FFFFFF"></path>
        <g id="clear_1" transform="translate(27.000000, 25.000000)"></g>
    </g>
</svg>