<?xml version="1.0" encoding="UTF-8"?>
<svg width="120px" height="120px" viewBox="0 0 120 120" version="1.1" xmlns="http://www.w3.org/2000/svg" xmlns:xlink="http://www.w3.org/1999/xlink">
    <!-- Generator: Sketch 54 (76480) - https://sketchapp.com -->
    <title>Combined Shape</title>
    <desc>Created with Sketch.</desc>
    <g id="Page-1" stroke="none" stroke-width="1" fill="none" fill-rule="evenodd">
        <g id="Artboard" fill="#FFFFFF">
            <path d="M60,120 C26.862915,120 0,93.137085 0,60 C0,26.862915 26.862915,0 60,0 C93.137085,0 120,26.862915 120,60 C120,93.137085 93.137085,120 60,120 Z M64.1146341,28.0731707 C64.1146341,26.3853347 62.7463727,25.0170732 61.0585366,25.0170732 C59.3707005,25.0170732 58.002439,26.3853347 58.002439,28.0731707 L58.002439,34.902439 C58.002439,36.5902751 59.3707005,37.9585366 61.0585366,37.9585366 C62.7463727,37.9585366 64.1146341,36.5902751 64.1146341,34.902439 L64.1146341,28.0731707 Z M40.3658537,35.397561 C39.1621039,34.2724584 37.2831368,34.3041764 36.1180469,35.4692664 C34.9529569,36.6343564 34.9212389,38.5133234 36.0463415,39.7170732 L40.8439024,44.5146341 C42.0476522,45.6397368 43.9266193,45.6080187 45.0917092,44.4429287 C46.2567992,43.2778388 46.2885172,41.3988717 45.1634146,40.195122 L40.3658537,35.397561 Z M28.602439,56.397561 C26.9146029,56.397561 25.5463415,57.7658225 25.5463415,59.4536585 C25.5463415,61.1414946 26.9146029,62.5097561 28.602439,62.5097561 L35.4317073,62.5097561 C37.1195434,62.5097561 38.4878049,61.1414946 38.4878049,59.4536585 C38.4878049,57.7658225 37.1195434,56.397561 35.4317073,56.397561 L28.602439,56.397561 Z M35.9097561,81.3414634 C34.7169558,82.5389784 34.7207778,84.4767118 35.9182928,85.6695121 C37.1158077,86.8623124 39.0535411,86.8584905 40.2463415,85.6609756 L45.0439024,80.8634146 C45.8595457,80.1010615 46.1945651,78.9546016 45.91776,77.8730124 C45.640955,76.7914233 44.7963816,75.9468499 43.7147924,75.6700449 C42.6332033,75.3932398 41.4867433,75.7282592 40.7243902,76.5439024 L35.9097561,81.3414634 Z M57.9512195,91.9097561 C57.9512195,93.5975922 59.319481,94.9658537 61.0073171,94.9658537 C62.6951532,94.9658537 64.0634146,93.5975922 64.0634146,91.9097561 L64.0634146,85.0804878 C64.0634145,83.3926518 62.6951531,82.0243904 61.0073171,82.0243904 C59.3194811,82.0243904 57.9512196,83.3926518 57.9512195,85.0804878 L57.9512195,91.9097561 Z M81.7853659,85.6268293 C82.9961071,86.6349502 84.7748173,86.5574416 85.8932765,85.447824 C87.0117356,84.3382064 87.1033583,82.5601673 86.104878,81.3414634 L81.3414634,76.5097561 C80.1377137,75.3846535 78.2587466,75.4163715 77.0936566,76.5814615 C75.9285666,77.7465515 75.8968486,79.6255186 77.0219512,80.8292683 L81.7853659,85.6268293 Z M91.397561,63.602439 C93.0853971,63.602439 94.4536585,62.2341775 94.4536585,60.5463415 C94.4536585,58.8585054 93.0853971,57.4902439 91.397561,57.4902439 L84.5682927,57.4902439 C82.8804566,57.4902439 81.5121951,58.8585054 81.5121951,60.5463415 C81.5121951,62.2341775 82.8804566,63.602439 84.5682927,63.602439 L91.397561,63.602439 Z M86.1390244,39.7682927 C86.7209008,39.196864 87.0486883,38.4155433 87.0486883,37.6 C87.0486883,36.7844567 86.7209008,36.003136 86.1390244,35.4317073 C84.9419831,34.2491899 83.0165535,34.2491899 81.8195122,35.4317073 L77.0219512,40.2463415 C75.8968486,41.4500912 75.9285666,43.3290583 77.0936566,44.4941483 C78.2587466,45.6592382 80.1377137,45.6909563 81.3414634,44.5658537 L86.1390244,39.7682927 Z M61.0585366,41.5780488 C50.5637793,41.5780488 42.0560976,50.0857305 42.0560976,60.5804878 C42.0560976,71.0752451 50.5637793,79.5829268 61.0585366,79.5829268 C71.5532939,79.5829268 80.0609756,71.0752451 80.0609756,60.5804878 C80.0515625,50.089632 71.5493924,41.5874618 61.0585366,41.5780488 Z M61.0585366,73.5219512 C53.9111637,73.5219512 48.1170732,67.7278607 48.1170732,60.5804878 C48.1170732,53.4331149 53.9111637,47.6390244 61.0585366,47.6390244 C68.2059095,47.6390244 74,53.4331149 74,60.5804878 C74,67.7278607 68.2059095,73.5219512 61.0585366,73.5219512 Z" id="Combined-Shape"></path>
        </g>
    </g>
</svg>